<svg width="71" height="70" viewBox="0 0 71 70" fill="none" xmlns="http://www.w3.org/2000/svg">
<g id="easy-as-an-app-02 1" clip-path="url(#clip0_26_992)">
<path id="Vector" d="M70.25 35C70.25 15.67 54.58 0 35.25 0C15.92 0 0.25 15.67 0.25 35C0.25 54.33 15.92 70 35.25 70C54.58 70 70.25 54.33 70.25 35Z" fill="#8FC74F"/>
<path id="Vector_2" d="M59.5288 19.4274V16H10.9713V19.4274H13.2371V43.5771H10.9713V47.0045H34.1745V54.8489H29.5711V57H40.9146V54.8489H36.3112V47.0045H59.5145V43.5771H57.2486V19.4274H59.5145H59.5288ZM54.4665 43.5771H16.0335V19.4274H54.4809V43.5771H54.4665Z" fill="white"/>
<path id="Vector_3" d="M25.3549 38.0129C28.8397 38.0129 31.6648 35.1877 31.6648 31.703H25.1971V25.3931C21.7841 25.4791 19.045 28.2755 19.045 31.703C19.045 35.1304 21.8701 38.0129 25.3549 38.0129Z" fill="white"/>
<path id="Vector_4" d="M27.6637 22.9697H27.5059V29.2796H33.9736C33.9736 25.7948 31.1485 22.9697 27.6637 22.9697Z" fill="white"/>
<path id="Vector_5" d="M42.2196 31.3301H38.8209V39.1171H42.2196V31.3301Z" fill="white"/>
<path id="Vector_6" d="M49.2323 22.5249H45.8336V39.1314H49.2323V22.5249Z" fill="white"/>
</g>
<defs>
<clipPath id="clip0_26_992">
<rect width="71" height="70" fill="white"/>
</clipPath>
</defs>
</svg>
