<svg width="71" height="76" viewBox="0 0 71 76" fill="none" xmlns="http://www.w3.org/2000/svg">
<g id="FPandA-dna-02 2" clip-path="url(#clip0_26_816)">
<path id="Vector" d="M70.25 37.7382C70.25 16.896 54.58 0 35.25 0C15.92 0 0.25 16.896 0.25 37.7382C0.25 58.5804 15.92 75.4763 35.25 75.4763C54.58 75.4763 70.25 58.5804 70.25 37.7382Z" fill="#8FC74F"/>
<path id="Vector_2" d="M30.6039 50.8022H28.0328V57.0141H30.6039V50.8022Z" fill="white"/>
<path id="Vector_3" d="M35.9117 47.1367H33.3406V57.0302H35.9117V47.1367Z" fill="white"/>
<path id="Vector_4" d="M41.2192 43.4551H38.648V57.0301H41.2192V43.4551Z" fill="white"/>
<path id="Vector_5" d="M57.1873 30.0586L59.9539 18.9163L49.6243 21.9005L52.6014 25.1118L41.6402 36.9353L41.8808 37.1947C40.2118 36.2379 38.3474 35.6216 36.3777 35.4594V19.6948H40.5877L35.25 9.7041L29.9123 19.6948H34.1223V35.4594C32.1376 35.6378 30.2731 36.2379 28.6192 37.1947L28.8598 36.9353L17.8986 25.1118L20.8757 21.9005L10.5461 18.9163L13.3127 30.0586L16.2898 26.8473L26.9502 38.3463C23.4468 41.1034 21.1614 45.5637 21.1614 50.5915C21.1614 58.9603 27.4765 65.7721 35.235 65.7721C42.9935 65.7721 49.3085 58.9603 49.3085 50.5915C49.3085 45.5637 47.0231 41.1197 43.5197 38.3463L54.1801 26.8473L57.1573 30.0586H57.1873ZM47.0682 50.5915C47.0682 57.6141 41.7756 63.3393 35.25 63.3393C28.7244 63.3393 23.4318 57.6141 23.4318 50.5915C23.4318 43.5687 28.7395 37.8435 35.25 37.8435C41.7605 37.8435 47.0682 43.5687 47.0682 50.5915Z" fill="white"/>
</g>
<defs>
<clipPath id="clip0_26_816">
<rect width="71" height="75.4763" fill="white"/>
</clipPath>
</defs>
</svg>
