<svg width="175" height="71" viewBox="0 0 175 71" fill="none" xmlns="http://www.w3.org/2000/svg">
<g id="limelight-logo 1" clip-path="url(#clip0_16_399)">
<g id="3---Brian-Scott">
<g id="Asset-2">
<g id="Group">
<path id="Oval" d="M4.70329 44.6686C6.33297 44.4337 7.49258 42.6849 7.29335 40.7628C7.09411 38.8406 5.61148 37.4729 3.9818 37.7079C2.35212 37.9429 1.19252 39.6916 1.39175 41.6138C1.59098 43.5359 3.07361 44.9036 4.70329 44.6686Z" fill="url(#paint0_linear_16_399)"/>
<path id="Oval_2" d="M6.0422 34.4007C6.78599 32.8714 6.33782 30.9205 5.0412 30.0432C3.74459 29.166 2.09052 29.6946 1.34674 31.2239C0.602954 32.7532 1.05112 34.7041 2.34773 35.5814C3.64435 36.4587 5.29842 35.9301 6.0422 34.4007Z" fill="url(#paint1_linear_16_399)"/>
<path id="Oval_3" d="M7.40269 24.324C7.5418 22.7417 6.56704 21.326 5.2255 21.1619C3.88395 20.9979 2.68365 22.1476 2.54454 23.7299C2.40543 25.3122 3.3802 26.7279 4.72174 26.892C6.06328 27.056 7.26359 25.9063 7.40269 24.324Z" fill="url(#paint2_linear_16_399)"/>
<path id="Oval_4" d="M9.86712 18.3076C10.8017 17.3882 10.9274 15.7492 10.1479 14.6468C9.36833 13.5444 7.97871 13.3961 7.04409 14.3155C6.10947 15.2349 5.98376 16.8739 6.76332 17.9763C7.54288 19.0787 8.9325 19.2271 9.86712 18.3076Z" fill="url(#paint3_linear_16_399)"/>
<path id="Oval_5" d="M14.6485 11.6565C15.4807 10.8298 15.587 9.36385 14.886 8.38233C14.185 7.40082 12.9421 7.27537 12.11 8.10215C11.2779 8.92892 11.1715 10.3948 11.8725 11.3763C12.5735 12.3579 13.8164 12.4833 14.6485 11.6565Z" fill="url(#paint4_linear_16_399)"/>
<path id="Path" d="M20.8913 6.62366C20.2645 7.53133 19.131 7.66708 18.3616 6.92757C17.5923 6.18806 17.4772 4.85086 18.104 3.94319C18.7309 3.03551 19.8643 2.89977 20.6337 3.63928C21.4031 4.37879 21.5182 5.71599 20.8913 6.62366Z" fill="url(#paint5_linear_16_399)"/>
<path id="Oval_6" d="M26.01 4.34898C26.8116 4.24742 27.3916 3.39846 27.3055 2.45278C27.2195 1.5071 26.4998 0.822813 25.6982 0.924377C24.8966 1.02594 24.3166 1.8749 24.4027 2.82058C24.4888 3.76626 25.2084 4.45055 26.01 4.34898Z" fill="url(#paint6_linear_16_399)"/>
<path id="Path_2" d="M32.439 2.93078C31.9993 3.56696 31.2059 3.66218 30.6649 3.14351C30.1257 2.62484 30.045 1.6888 30.4846 1.05059C30.9243 0.414412 31.7177 0.319188 32.2586 0.837858C32.7979 1.35653 32.8786 2.29257 32.439 2.93078Z" fill="url(#paint7_linear_16_399)"/>
<path id="Path_3" d="M37.5687 3.41501C37.1634 4.00256 36.4301 4.09171 35.932 3.61153C35.434 3.13339 35.3584 2.26826 35.7655 1.6807C36.1708 1.09315 36.9041 1.004 37.4021 1.48418C37.9001 1.96233 37.9757 2.82745 37.5687 3.41501Z" fill="url(#paint8_linear_16_399)"/>
<path id="Oval_7" d="M8.87903 50.0671C9.25885 48.3619 8.39475 46.6164 6.94901 46.1684C5.50327 45.7204 4.02336 46.7396 3.64354 48.4448C3.26372 50.15 4.12781 51.8955 5.57355 52.3435C7.01929 52.7915 8.49921 51.7723 8.87903 50.0671Z" fill="url(#paint9_linear_16_399)"/>
<path id="Oval_8" d="M12.5236 57.8312C12.988 56.3377 12.3379 54.6829 11.0716 54.1352C9.80538 53.5875 8.40241 54.3542 7.93802 55.8477C7.47363 57.3412 8.12368 58.996 9.38994 59.5437C10.6562 60.0914 12.0592 59.3247 12.5236 57.8312Z" fill="url(#paint10_linear_16_399)"/>
<path id="Oval_9" d="M16.309 65.0158C17.5052 64.7525 18.294 63.3952 18.0708 61.9843C17.8475 60.5734 16.6968 59.643 15.5006 59.9063C14.3043 60.1696 13.5156 61.5268 13.7388 62.9378C13.962 64.3487 15.1127 65.279 16.309 65.0158Z" fill="url(#paint11_linear_16_399)"/>
<path id="Oval_10" d="M24.3729 67.0273C24.7333 65.8163 24.1933 64.4901 23.1667 64.0651C22.1402 63.6401 21.0158 64.2774 20.6555 65.4883C20.2951 66.6993 20.8352 68.0256 21.8617 68.4505C22.8883 68.8755 24.0126 68.2383 24.3729 67.0273Z" fill="url(#paint12_linear_16_399)"/>
<path id="Oval_11" d="M30.14 69.8566C31.095 69.5353 31.6483 68.3616 31.3759 67.235C31.1034 66.1084 30.1084 65.4555 29.1534 65.7768C28.1984 66.0981 27.6451 67.2718 27.9176 68.3984C28.19 69.525 29.1851 70.1779 30.14 69.8566Z" fill="url(#paint13_linear_16_399)"/>
<path id="Oval_12" d="M36.7467 69.1967C37.5339 68.9913 38.0309 68.072 37.8568 67.1434C37.6826 66.2147 36.9033 65.6283 36.1161 65.8336C35.3289 66.039 34.8319 66.9583 35.0061 67.8869C35.1802 68.8156 35.9595 69.402 36.7467 69.1967Z" fill="url(#paint14_linear_16_399)"/>
<path id="Oval_13" d="M41.869 67.1723C42.5652 67.1723 43.1296 66.5065 43.1296 65.6852C43.1296 64.8639 42.5652 64.1981 41.869 64.1981C41.1728 64.1981 40.6085 64.8639 40.6085 65.6852C40.6085 66.5065 41.1728 67.1723 41.869 67.1723Z" fill="url(#paint15_linear_16_399)"/>
<path id="Path_4" d="M46.7515 62.2738C46.135 61.6335 45.187 61.9577 44.9552 62.8877C44.8384 63.3557 44.9672 63.8784 45.2763 64.2005C45.8929 64.8408 46.8408 64.5166 47.0727 63.5866C47.1895 63.1186 47.0607 62.5959 46.7498 62.2738H46.7515Z" fill="url(#paint16_linear_16_399)"/>
<path id="Oval_14" d="M16.8639 18.3741C17.5025 16.9932 17.0711 15.2633 15.9003 14.5101C14.7296 13.7569 13.2629 14.2657 12.6243 15.6466C11.9857 17.0274 12.4171 18.7574 13.5879 19.5106C14.7586 20.2637 16.2253 19.7549 16.8639 18.3741Z" fill="url(#paint17_linear_16_399)"/>
<path id="Oval_15" d="M10.9959 25.3696C12.2403 25.3696 13.2491 24.1798 13.2491 22.712C13.2491 21.2443 12.2403 20.0545 10.9959 20.0545C9.75146 20.0545 8.74268 21.2443 8.74268 22.712C8.74268 24.1798 9.75146 25.3696 10.9959 25.3696Z" fill="url(#paint18_linear_16_399)"/>
<path id="Oval_16" d="M9.47563 31.5513C10.5788 31.3897 11.362 30.2039 11.225 28.9028C11.0879 27.6017 10.0826 26.6779 8.97947 26.8395C7.87633 27.0011 7.09313 28.1869 7.23014 29.488C7.36715 30.7891 8.37249 31.7129 9.47563 31.5513Z" fill="url(#paint19_linear_16_399)"/>
<path id="Oval_17" d="M9.85404 38.2044C10.649 37.5677 10.8557 36.2914 10.3159 35.3537C9.77599 34.4161 8.69392 34.1721 7.899 34.8088C7.10407 35.4455 6.89731 36.7218 7.43718 37.6595C7.97705 38.5971 9.05912 38.8411 9.85404 38.2044Z" fill="url(#paint20_linear_16_399)"/>
<path id="Path_5" d="M11.1556 44.6194C10.6146 45.4299 9.61853 45.5676 8.93158 44.9274C8.24463 44.2892 8.12785 43.1141 8.67054 42.3037C9.21151 41.4932 10.2076 41.3555 10.8945 41.9957C11.5815 42.6339 11.6983 43.809 11.1556 44.6194Z" fill="url(#paint21_linear_16_399)"/>
<path id="Path_6" d="M13.5719 51.0445C13.0893 51.7658 12.2015 51.8894 11.5901 51.32C10.9787 50.7507 10.8739 49.7032 11.3565 48.982C11.8391 48.2607 12.727 48.1371 13.3384 48.7064C13.9497 49.2757 14.0545 50.3232 13.5719 51.0445Z" fill="url(#paint22_linear_16_399)"/>
<path id="Path_7" d="M17.2419 56.2846C16.8143 56.9229 16.0277 57.0323 15.4868 56.5278C14.9458 56.0233 14.8531 55.0953 15.2807 54.4571C15.7083 53.8189 16.4949 53.7095 17.0358 54.214C17.5768 54.7185 17.6696 55.6464 17.2419 56.2846Z" fill="url(#paint23_linear_16_399)"/>
<path id="Oval_18" d="M20.7176 14.1511C21.7121 13.2685 21.9116 11.6022 21.1633 10.4292C20.4149 9.25618 19.0021 9.02075 18.0077 9.90333C17.0133 10.7859 16.8137 12.4523 17.5621 13.6253C18.3104 14.7983 19.7232 15.0337 20.7176 14.1511Z" fill="url(#paint24_linear_16_399)"/>
<path id="Oval_19" d="M26.1605 10.8456C27.0012 9.98762 27.093 8.48819 26.3655 7.49658C25.638 6.50497 24.3667 6.39668 23.526 7.2547C22.6853 8.11273 22.5935 9.61215 23.321 10.6038C24.0485 11.5954 25.3198 11.7037 26.1605 10.8456Z" fill="url(#paint25_linear_16_399)"/>
<path id="Oval_20" d="M31.842 9.73718C32.6026 9.04457 32.7431 7.7558 32.1558 6.85865C31.5686 5.96149 30.4759 5.79568 29.7153 6.48829C28.9547 7.1809 28.8142 8.46966 29.4015 9.36682C29.9887 10.264 31.0814 10.4298 31.842 9.73718Z" fill="url(#paint26_linear_16_399)"/>
<path id="Oval_21" d="M36.8212 10.4757C37.6948 10.4287 38.3707 9.55519 38.3308 8.52458C38.291 7.49397 37.5505 6.69657 36.6769 6.74354C35.8033 6.79051 35.1274 7.66406 35.1673 8.69467C35.2071 9.72528 35.9476 10.5227 36.8212 10.4757Z" fill="url(#paint27_linear_16_399)"/>
<path id="Oval_22" d="M43.384 11.6452C43.9298 10.9076 43.8653 9.78779 43.2399 9.1441C42.6145 8.50041 41.6651 8.57657 41.1193 9.31421C40.5736 10.0518 40.6381 11.1716 41.2635 11.8153C41.8889 12.459 42.8383 12.3828 43.384 11.6452Z" fill="url(#paint28_linear_16_399)"/>
<path id="Oval_23" d="M48.4128 14.8643C48.7925 14.0176 48.5183 12.9683 47.8005 12.5207C47.0828 12.073 46.1932 12.3965 45.8136 13.2432C45.434 14.0899 45.7081 15.1392 46.4259 15.5868C47.1436 16.0345 48.0332 15.711 48.4128 14.8643Z" fill="url(#paint29_linear_16_399)"/>
<path id="Oval_24" d="M27.3818 16.926C28.2228 16.4037 28.5455 15.1761 28.1026 14.1841C27.6597 13.192 26.6189 12.8112 25.778 13.3336C24.937 13.8559 24.6143 15.0835 25.0572 16.0755C25.5001 17.0675 26.5408 17.4483 27.3818 16.926Z" fill="url(#paint30_linear_16_399)"/>
<path id="Path_8" d="M23.5618 17.9241C23.3197 18.8885 22.461 19.4376 21.6453 19.1519C20.8278 18.8662 20.3624 17.8532 20.6045 16.8908C20.8467 15.9264 21.7054 15.3774 22.5211 15.663C23.3386 15.9487 23.804 16.9617 23.5618 17.9241Z" fill="url(#paint31_linear_16_399)"/>
<path id="Oval_25" d="M18.6152 23.0154C19.2662 22.6079 19.5138 21.6549 19.1682 20.887C18.8226 20.1191 18.0147 19.827 17.3637 20.2346C16.7127 20.6421 16.4652 21.5951 16.8108 22.363C17.1564 23.1309 17.9642 23.423 18.6152 23.0154Z" fill="url(#paint32_linear_16_399)"/>
<path id="Path_9" d="M16.2458 26.4679C16.0621 27.2013 15.4078 27.6187 14.7861 27.4019C14.1644 27.1851 13.8106 26.4132 13.9944 25.6798C14.1781 24.9463 14.8324 24.529 15.4541 24.7458C16.0758 24.9625 16.4296 25.7345 16.2458 26.4679Z" fill="url(#paint33_linear_16_399)"/>
<path id="Path_10" d="M14.0408 31.5217C13.8793 32.1639 13.3074 32.5286 12.7648 32.3382C12.2203 32.1477 11.9112 31.4731 12.0727 30.8328C12.2341 30.1906 12.806 29.8259 13.3487 30.0163C13.8931 30.2068 14.2022 30.8815 14.0408 31.5217Z" fill="url(#paint34_linear_16_399)"/>
<path id="Path_11" d="M13.7265 36.8773C13.5616 37.5318 12.9794 37.9046 12.423 37.7121C11.8683 37.5176 11.5523 36.8307 11.7154 36.1743C11.8803 35.5199 12.4625 35.1471 13.0189 35.3396C13.5753 35.532 13.8896 36.2209 13.7265 36.8773Z" fill="url(#paint35_linear_16_399)"/>
<path id="Path_12" d="M14.0579 41.6657C13.9137 42.2391 13.4036 42.5653 12.9176 42.3951C12.4316 42.2249 12.1551 41.6232 12.2993 41.0498C12.4436 40.4764 12.9537 40.1502 13.4397 40.3204C13.9257 40.4906 14.2022 41.0924 14.0579 41.6657Z" fill="url(#paint36_linear_16_399)"/>
<path id="Path_13" d="M30.6992 15.1675C31.3295 15.8422 32.305 15.7875 32.8786 15.0439C33.4505 14.3004 33.4041 13.1496 32.7738 12.4728C32.1436 11.7982 31.1681 11.8529 30.5945 12.5964C30.0226 13.34 30.069 14.4908 30.6992 15.1675Z" fill="url(#paint37_linear_16_399)"/>
<path id="Oval_26" d="M36.6096 15.9708C37.3453 15.9204 37.9071 15.176 37.8644 14.308C37.8217 13.44 37.1907 12.7772 36.455 12.8276C35.7192 12.8779 35.1574 13.6223 35.2001 14.4903C35.2428 15.3583 35.8738 16.0211 36.6096 15.9708Z" fill="url(#paint38_linear_16_399)"/>
<path id="Path_14" d="M39.9112 17.3124C40.3904 17.827 41.134 17.7845 41.5685 17.2172C42.0047 16.6519 41.9686 15.7746 41.4878 15.262C41.0086 14.7474 40.265 14.79 39.8305 15.3573C39.3943 15.9225 39.4304 16.7998 39.9112 17.3124Z" fill="url(#paint39_linear_16_399)"/>
<path id="Path_15" d="M15.8955 45.3989C15.7444 45.9986 15.2103 46.341 14.7019 46.1627C14.1936 45.9844 13.9033 45.3543 14.0545 44.7546C14.2056 44.1549 14.7397 43.8125 15.248 43.9908C15.7564 44.1691 16.0466 44.7992 15.8955 45.3989Z" fill="url(#paint40_linear_16_399)"/>
<path id="Path_16" d="M50.0746 59.2253C49.5989 58.9173 49.003 59.1199 48.7402 59.6811C48.4792 60.2424 48.6509 60.9454 49.1266 61.2554C49.6024 61.5633 50.1983 61.3607 50.461 60.7995C50.7221 60.2383 50.5503 59.5353 50.0746 59.2253Z" fill="url(#paint41_linear_16_399)"/>
<path id="Path_17" d="M52.8567 55.9843C52.381 55.6763 51.7851 55.879 51.5223 56.4402C51.2613 57.0014 51.433 57.7044 51.9087 58.0144C52.3845 58.3224 52.9804 58.1198 53.2431 57.5586C53.5042 56.9973 53.3324 56.2943 52.8567 55.9843Z" fill="url(#paint42_linear_16_399)"/>
<path id="Path_18" d="M54.1259 21.0552C53.5007 20.6479 52.7142 20.9174 52.369 21.6549C52.0238 22.3924 52.2522 23.3203 52.8773 23.7275C53.5025 24.1348 54.289 23.8653 54.6342 23.1278C54.9794 22.3903 54.751 21.4624 54.1259 21.0552Z" fill="url(#paint43_linear_16_399)"/>
<path id="Path_19" d="M51.4726 16.6333C50.8166 16.2079 49.9922 16.4895 49.6316 17.2614C49.2709 18.0354 49.5097 19.0079 50.164 19.4333C50.82 19.8588 51.6443 19.5772 52.005 18.8053C52.3656 18.0313 52.1269 17.0588 51.4726 16.6333Z" fill="url(#paint44_linear_16_399)"/>
<path id="Path_20" d="M42.0751 2.99709C41.565 2.66684 40.9245 2.88363 40.6445 3.48537C40.3646 4.08711 40.5484 4.84283 41.0584 5.17307C41.5685 5.50332 42.2091 5.28653 42.489 4.68479C42.7689 4.08306 42.5852 3.32734 42.0751 2.99709Z" fill="url(#paint45_linear_16_399)"/>
<path id="Path_21" d="M46.3256 5.30017C45.8344 4.98005 45.2145 5.19076 44.9431 5.77224C44.6718 6.35169 44.8504 7.0831 45.3433 7.40321C45.8344 7.72333 46.4544 7.51262 46.7258 6.93114C46.9971 6.35169 46.8185 5.62029 46.3256 5.30017Z" fill="url(#paint46_linear_16_399)"/>
<path id="Path_22" d="M49.5165 8.19473C49.0408 7.88677 48.4448 8.08937 48.1821 8.65059C47.921 9.21181 48.0928 9.91485 48.5685 10.2248C49.0442 10.5328 49.6401 10.3302 49.9029 9.76897C50.1639 9.20775 49.9922 8.50471 49.5165 8.19473Z" fill="url(#paint47_linear_16_399)"/>
<path id="Oval_27" d="M48.5716 26.7061C49.5624 26.066 49.9257 24.5996 49.3829 23.4308C48.8402 22.262 47.597 21.8334 46.6061 22.4735C45.6153 23.1136 45.2521 24.58 45.7948 25.7488C46.3376 26.9176 47.5808 27.3462 48.5716 26.7061Z" fill="url(#paint48_linear_16_399)"/>
<path id="Path_23" d="M44.6254 21.291C43.7358 21.4511 42.9046 20.7318 42.7689 19.6823C42.6332 18.6328 43.2429 17.6522 44.1325 17.4921C45.0221 17.3321 45.8533 18.0513 45.989 19.1008C46.1246 20.1503 45.515 21.1309 44.6254 21.291Z" fill="url(#paint49_linear_16_399)"/>
<path id="Oval_28" d="M115.491 26.6696C116.482 26.0295 116.845 24.5631 116.303 23.3943C115.76 22.2255 114.517 21.7969 113.526 22.437C112.535 23.0771 112.172 24.5435 112.715 25.7123C113.257 26.8811 114.501 27.3097 115.491 26.6696Z" fill="white"/>
</g>
<g id="Group_2">
<path id="Path_24" d="M32.2878 49.6463H44.0363V53.6833H28.6693V21.5636H32.2878V49.6463Z" fill="#95C93D"/>
<path id="Path_25" d="M46.02 53.6832V30.7394H49.4049V53.6832H46.02Z" fill="#95C93D"/>
<path id="Path_26" d="M74.3033 30.1439C76.4826 30.1439 78.2446 30.9785 79.5945 32.6455C80.9426 34.3126 81.6175 36.5691 81.6175 39.413V53.6832H78.2326V39.5507C78.2326 37.7763 77.8428 36.4009 77.0648 35.4206C76.2868 34.4422 75.2495 33.952 73.9529 33.952C72.5 33.952 71.3391 34.5253 70.4701 35.6738C69.6011 36.8202 69.1666 38.5724 69.1666 40.9281V53.6852H65.7817V39.5528C65.7817 37.7783 65.4125 36.403 64.6723 35.4226C63.9338 34.4442 62.9274 33.954 61.6566 33.954C60.2294 33.954 59.0427 34.5354 58.0965 35.6981C57.1485 36.8608 56.6762 38.6048 56.6762 40.9281V53.6852H53.2913V30.7415H56.6762V33.8163C57.9986 31.3694 59.9306 30.1459 62.4723 30.1459C65.014 30.1459 66.9976 31.4464 68.1912 34.0472C69.5393 31.4484 71.5761 30.1459 74.2998 30.1459L74.3033 30.1439Z" fill="#95C93D"/>
<path id="Shape" d="M87.4154 44.0475C87.752 46.0974 88.5506 47.6875 89.8077 48.8198C91.0649 49.9521 92.6156 50.5172 94.4567 50.5172C97.0241 50.5172 98.8926 49.4011 100.059 47.1669L102.937 49.0933C101.043 52.5509 98.1902 54.2787 94.3777 54.2787C91.2915 54.2787 88.7808 53.1404 86.8504 50.8596C84.9184 48.5808 83.9515 45.6964 83.9515 42.2103C83.9515 38.7243 84.8978 35.8784 86.792 33.5834C88.6846 31.2884 91.1353 30.1419 94.1458 30.1419C96.9984 30.1419 99.3271 31.3269 101.129 33.6988C102.93 36.0708 103.832 38.9228 103.832 42.2569C103.832 42.8383 103.792 43.4358 103.715 44.0475H87.4137H87.4154ZM94.1458 33.9075C92.3306 33.9075 90.8261 34.5111 89.6326 35.7204C88.439 36.9296 87.7005 38.542 87.4154 40.5615H100.409C100.124 38.3901 99.3975 36.7372 98.2297 35.6049C97.0619 34.4726 95.7018 33.9075 94.1441 33.9075H94.1458Z" fill="#95C93D"/>
<path id="Path_27" d="M106.866 53.6834V22.1775H108.812V53.6854H106.866V53.6834Z" fill="white"/>
<path id="Path_28" d="M113.519 53.6832V30.7394H115.465V53.6832H113.519Z" fill="white"/>
<path id="Shape_2" d="M137.446 30.7415H139.392V52.5833C139.392 55.9174 138.471 58.5487 136.63 60.475C134.787 62.4013 132.479 63.3655 129.706 63.3655C127.475 63.3655 125.569 62.8753 123.987 61.897C122.405 60.9166 121.249 59.5716 120.525 57.86L122.237 56.7135C123.482 59.681 125.972 61.1637 129.707 61.1637C132.12 61.1637 134.013 60.3899 135.387 58.8464C136.761 57.3009 137.449 55.2125 137.449 52.5833V48.362C136.646 50.1668 135.51 51.5908 134.046 52.6299C132.581 53.6711 130.927 54.1896 129.086 54.1896C126.285 54.1896 123.904 53.035 121.947 50.7259C119.989 48.4167 119.01 45.5789 119.01 42.2144C119.01 38.8499 119.989 36.012 121.947 33.7029C123.904 31.3937 126.285 30.2391 129.086 30.2391C130.927 30.2391 132.581 30.7597 134.046 31.7988C135.51 32.84 136.646 34.2619 137.449 36.0667V30.7435L137.446 30.7415ZM123.343 49.1419C124.938 51.0398 126.889 51.9858 129.197 51.9858C131.506 51.9858 133.458 51.0378 135.052 49.1419C136.647 47.2459 137.444 44.9368 137.444 42.2124C137.444 39.4879 136.647 37.1808 135.052 35.2828C133.456 33.3869 131.506 32.4369 129.197 32.4369C126.889 32.4369 124.937 33.3849 123.343 35.2828C121.747 37.1808 120.951 39.49 120.951 42.2124C120.951 44.9347 121.747 47.2439 123.343 49.1419Z" fill="white"/>
<path id="Path_29" d="M153.007 30.2352C155.315 30.2352 157.151 31.0698 158.511 32.7368C159.873 34.4039 160.553 36.63 160.553 39.4131V53.6834H158.569V39.4131C158.569 37.2721 158.07 35.5747 157.072 34.3188C156.072 33.065 154.666 32.437 152.851 32.437C150.853 32.437 149.218 33.2169 147.949 34.7766C146.678 36.3363 146.043 38.6009 146.043 41.5684V53.6834H144.097V22.1531H146.043V35.1007C147.444 31.8577 149.764 30.2372 153.007 30.2372V30.2352Z" fill="white"/>
<path id="Path_30" d="M174.716 32.9899H168.92V47.9022C168.92 49.2168 169.128 50.1668 169.542 50.7461C169.956 51.3275 170.593 51.6576 171.448 51.7326C172.303 51.8096 173.394 51.7711 174.716 51.6171V53.6812C172.096 54.141 170.145 53.9263 168.862 53.0391C167.577 52.1519 166.937 50.4382 166.937 47.9002V32.9878H162.657V30.7395H166.937V25.003L168.92 24.3143V30.7395H174.716V32.9878V32.9899Z" fill="white"/>
</g>
<g id="Group_3">
<path id="Path_31" d="M147.991 60.0945V60.3659C147.991 61.241 147.728 61.9783 147.201 62.5779C146.673 63.1754 145.98 63.4752 145.117 63.4752C144.211 63.4752 143.462 63.1268 142.873 62.428C142.284 61.7292 141.988 60.8723 141.988 59.8555C141.988 58.8387 142.28 57.9818 142.864 57.283C143.448 56.5842 144.188 56.2358 145.083 56.2358C145.627 56.2358 146.127 56.3897 146.584 56.6976C147.041 57.0055 147.393 57.4167 147.642 57.9312L147.242 58.2127C147.043 57.7712 146.751 57.4167 146.362 57.1493C145.974 56.8819 145.548 56.7483 145.083 56.7483C144.312 56.7483 143.678 57.048 143.184 57.6456C142.687 58.2431 142.44 58.9804 142.44 59.8575C142.44 60.7346 142.689 61.4699 143.189 62.0695C143.687 62.667 144.331 62.9668 145.119 62.9668C145.816 62.9668 146.38 62.744 146.811 62.2943C147.242 61.8466 147.482 61.2815 147.534 60.5989H145.009V60.0986H147.992L147.991 60.0945Z" fill="white"/>
<path id="Shape_3" d="M153.898 63.3636L152.464 60.4852H150.591V63.3636H150.141V56.3449H152.487C152.967 56.3449 153.381 56.5495 153.728 56.9566C154.073 57.3638 154.247 57.8519 154.247 58.4211C154.247 58.8951 154.123 59.3164 153.878 59.6851C153.63 60.0517 153.318 60.2968 152.938 60.4163L154.417 63.3636H153.898ZM150.591 56.8473V59.9849H152.487C152.849 59.9849 153.158 59.833 153.414 59.5291C153.668 59.2253 153.797 58.8566 153.797 58.4211C153.797 57.9856 153.67 57.6149 153.414 57.3071C153.158 56.9992 152.851 56.8452 152.487 56.8452H150.591V56.8473Z" fill="white"/>
<path id="Shape_4" d="M161.278 62.4155C160.684 63.1204 159.957 63.4729 159.102 63.4729C158.247 63.4729 157.52 63.1204 156.926 62.4155C156.33 61.7106 156.033 60.8558 156.033 59.8531C156.033 58.8505 156.33 57.9957 156.926 57.2908C157.52 56.5859 158.247 56.2334 159.102 56.2334C159.957 56.2334 160.684 56.5859 161.278 57.2908C161.872 57.9957 162.171 58.8505 162.171 59.8531C162.171 60.8558 161.874 61.7106 161.278 62.4155ZM157.244 62.055C157.75 62.6606 158.37 62.9624 159.102 62.9624C159.833 62.9624 160.452 62.6606 160.96 62.055C161.467 61.4493 161.721 60.716 161.721 59.8531C161.721 58.9902 161.467 58.257 160.96 57.6513C160.453 57.0457 159.833 56.7439 159.102 56.7439C158.37 56.7439 157.752 57.0457 157.244 57.6513C156.737 58.257 156.483 58.9902 156.483 59.8531C156.483 60.716 156.737 61.4493 157.244 62.055Z" fill="white"/>
<path id="Path_32" d="M167.963 62.8005C167.563 63.2481 167.036 63.473 166.378 63.473C165.721 63.473 165.193 63.2481 164.797 62.8005C164.4 62.3528 164.202 61.7573 164.202 61.0159V56.3429H164.652V61.0159C164.652 61.6033 164.802 62.0753 165.102 62.4298C165.403 62.7843 165.827 62.9605 166.377 62.9605C166.926 62.9605 167.352 62.7843 167.656 62.4298C167.958 62.0753 168.111 61.6033 168.111 61.0159V56.3429H168.561V61.0159C168.561 61.7573 168.362 62.3528 167.962 62.8005H167.963Z" fill="white"/>
<path id="Shape_5" d="M173.001 56.3449C173.533 56.3449 173.974 56.5515 174.326 56.9668C174.678 57.382 174.854 57.8985 174.854 58.5204C174.854 59.1422 174.678 59.6588 174.326 60.07C173.974 60.4811 173.533 60.6857 173.001 60.6857H171.427V63.3636H170.977V56.3449H173.001ZM173.001 60.1854C173.409 60.1854 173.744 60.0274 174.009 59.7135C174.273 59.3995 174.404 59.0025 174.404 58.5204C174.404 58.0383 174.271 57.6312 174.009 57.3172C173.746 57.0032 173.409 56.8452 173.001 56.8452H171.427V60.1834H173.001V60.1854Z" fill="white"/>
</g>
</g>
</g>
</g>
<defs>
<linearGradient id="paint0_linear_16_399" x1="-1298.27" y1="-4173.63" x2="2663.49" y2="3716.19" gradientUnits="userSpaceOnUse">
<stop offset="0.01" stop-color="#42AD49"/>
<stop offset="0.42" stop-color="#65B345"/>
<stop offset="0.68" stop-color="#B4D448"/>
<stop offset="1" stop-color="#9ECC3B"/>
</linearGradient>
<linearGradient id="paint1_linear_16_399" x1="-995.498" y1="-3864.81" x2="2966.26" y2="4025.02" gradientUnits="userSpaceOnUse">
<stop offset="0.01" stop-color="#42AD49"/>
<stop offset="0.53" stop-color="#65B345"/>
<stop offset="0.7" stop-color="#B4D448"/>
<stop offset="1" stop-color="#9ECC3B"/>
</linearGradient>
<linearGradient id="paint2_linear_16_399" x1="-845.618" y1="-3321.42" x2="3116.15" y2="4568.41" gradientUnits="userSpaceOnUse">
<stop offset="0.25" stop-color="#42AD49"/>
<stop offset="0.52" stop-color="#65B345"/>
<stop offset="0.59" stop-color="#B4D448"/>
<stop offset="1" stop-color="#9ECC3B"/>
</linearGradient>
<linearGradient id="paint3_linear_16_399" x1="-618.029" y1="-2537.51" x2="3344.25" y2="5353.58" gradientUnits="userSpaceOnUse">
<stop offset="0.2" stop-color="#42AD49"/>
<stop offset="0.45" stop-color="#65B345"/>
<stop offset="0.59" stop-color="#B4D448"/>
<stop offset="1" stop-color="#9ECC3B"/>
</linearGradient>
<linearGradient id="paint4_linear_16_399" x1="-524.596" y1="-2213.59" x2="3439.12" y2="5676.54" gradientUnits="userSpaceOnUse">
<stop offset="0.15" stop-color="#42AD49"/>
<stop offset="0.36" stop-color="#65B345"/>
<stop offset="0.59" stop-color="#B4D448"/>
<stop offset="1" stop-color="#9ECC3B"/>
</linearGradient>
<linearGradient id="paint5_linear_16_399" x1="-568.685" y1="-1907.36" x2="3394.56" y2="5983.56" gradientUnits="userSpaceOnUse">
<stop offset="0.01" stop-color="#42AD49"/>
<stop offset="0.27" stop-color="#65B345"/>
<stop offset="0.59" stop-color="#B4D448"/>
<stop offset="1" stop-color="#9ECC3B"/>
</linearGradient>
<linearGradient id="paint6_linear_16_399" x1="-603.997" y1="-2031.31" x2="3360.69" y2="5858.66" gradientUnits="userSpaceOnUse">
<stop offset="0.01" stop-color="#42AD49"/>
<stop offset="0.27" stop-color="#65B345"/>
<stop offset="0.59" stop-color="#B4D448"/>
<stop offset="1" stop-color="#9ECC3B"/>
</linearGradient>
<linearGradient id="paint7_linear_16_399" x1="-2061.89" y1="-233.903" x2="4347.54" y2="5027.09" gradientUnits="userSpaceOnUse">
<stop offset="0.01" stop-color="#42AD49"/>
<stop offset="0.27" stop-color="#65B345"/>
<stop offset="0.59" stop-color="#B4D448"/>
<stop offset="1" stop-color="#9ECC3B"/>
</linearGradient>
<linearGradient id="paint8_linear_16_399" x1="-2545.76" y1="-1009.7" x2="5049.63" y2="5224.72" gradientUnits="userSpaceOnUse">
<stop offset="0.01" stop-color="#42AD49"/>
<stop offset="0.27" stop-color="#65B345"/>
<stop offset="0.59" stop-color="#B4D448"/>
<stop offset="1" stop-color="#9ECC3B"/>
</linearGradient>
<linearGradient id="paint9_linear_16_399" x1="-1573.33" y1="-5458.02" x2="2388.43" y2="2431.81" gradientUnits="userSpaceOnUse">
<stop offset="0.01" stop-color="#42AD49"/>
<stop offset="0.27" stop-color="#65B345"/>
<stop offset="0.59" stop-color="#B4D448"/>
<stop offset="1" stop-color="#9ECC3B"/>
</linearGradient>
<linearGradient id="paint10_linear_16_399" x1="-1879.18" y1="-6205.18" x2="2082.58" y2="1684.65" gradientUnits="userSpaceOnUse">
<stop offset="0.01" stop-color="#42AD49"/>
<stop offset="0.27" stop-color="#65B345"/>
<stop offset="0.59" stop-color="#B4D448"/>
<stop offset="1" stop-color="#9ECC3B"/>
</linearGradient>
<linearGradient id="paint11_linear_16_399" x1="-2187.63" y1="-6541.64" x2="1774.14" y2="1348.2" gradientUnits="userSpaceOnUse">
<stop offset="0.01" stop-color="#42AD49"/>
<stop offset="0.27" stop-color="#65B345"/>
<stop offset="0.59" stop-color="#B4D448"/>
<stop offset="1" stop-color="#9ECC3B"/>
</linearGradient>
<linearGradient id="paint12_linear_16_399" x1="-2403.86" y1="-7487.68" x2="1559.17" y2="402.701" gradientUnits="userSpaceOnUse">
<stop offset="0.01" stop-color="#42AD49"/>
<stop offset="0.27" stop-color="#65B345"/>
<stop offset="0.59" stop-color="#B4D448"/>
<stop offset="1" stop-color="#9ECC3B"/>
</linearGradient>
<linearGradient id="paint13_linear_16_399" x1="-2583.86" y1="-7636.56" x2="1378.97" y2="254.852" gradientUnits="userSpaceOnUse">
<stop offset="0.01" stop-color="#42AD49"/>
<stop offset="0.27" stop-color="#65B345"/>
<stop offset="0.59" stop-color="#B4D448"/>
<stop offset="1" stop-color="#9ECC3B"/>
</linearGradient>
<linearGradient id="paint14_linear_16_399" x1="-2720.81" y1="-7917.86" x2="1242.14" y2="-26.5173" gradientUnits="userSpaceOnUse">
<stop offset="0.01" stop-color="#42AD49"/>
<stop offset="0.27" stop-color="#65B345"/>
<stop offset="0.59" stop-color="#B4D448"/>
<stop offset="1" stop-color="#9ECC3B"/>
</linearGradient>
<linearGradient id="paint15_linear_16_399" x1="-3903.16" y1="-5565.8" x2="2506.26" y2="-304.798" gradientUnits="userSpaceOnUse">
<stop offset="0.01" stop-color="#42AD49"/>
<stop offset="0.27" stop-color="#65B345"/>
<stop offset="0.59" stop-color="#B4D448"/>
<stop offset="1" stop-color="#9ECC3B"/>
</linearGradient>
<linearGradient id="paint16_linear_16_399" x1="-3145.86" y1="-8917.27" x2="1273.01" y2="-119.455" gradientUnits="userSpaceOnUse">
<stop offset="0.01" stop-color="#42AD49"/>
<stop offset="0.27" stop-color="#65B345"/>
<stop offset="0.59" stop-color="#B4D448"/>
<stop offset="1" stop-color="#95C93D"/>
</linearGradient>
<linearGradient id="paint17_linear_16_399" x1="-712.472" y1="-3008.2" x2="3249.29" y2="4881.63" gradientUnits="userSpaceOnUse">
<stop offset="0.25" stop-color="#42AD49"/>
<stop offset="0.42" stop-color="#65B345"/>
<stop offset="0.59" stop-color="#B4D448"/>
<stop offset="1" stop-color="#9ECC3B"/>
</linearGradient>
<linearGradient id="paint18_linear_16_399" x1="-934.219" y1="-2950.26" x2="3027.55" y2="4939.57" gradientUnits="userSpaceOnUse">
<stop offset="0.21" stop-color="#42AD49"/>
<stop offset="0.46" stop-color="#65B345"/>
<stop offset="0.59" stop-color="#B4D448"/>
<stop offset="1" stop-color="#9ECC3B"/>
</linearGradient>
<linearGradient id="paint19_linear_16_399" x1="-1107.92" y1="-3476.15" x2="2853.84" y2="4413.67" gradientUnits="userSpaceOnUse">
<stop offset="0.01" stop-color="#42AD49"/>
<stop offset="0.45" stop-color="#65B345"/>
<stop offset="0.59" stop-color="#B4D448"/>
<stop offset="1" stop-color="#9ECC3B"/>
</linearGradient>
<linearGradient id="paint20_linear_16_399" x1="-1309.52" y1="-4223.61" x2="2654.24" y2="3666.71" gradientUnits="userSpaceOnUse">
<stop offset="0.01" stop-color="#42AD49"/>
<stop offset="0.38" stop-color="#65B345"/>
<stop offset="0.7" stop-color="#B4D448"/>
<stop offset="1" stop-color="#9ECC3B"/>
</linearGradient>
<linearGradient id="paint21_linear_16_399" x1="-2239.4" y1="-1461.17" x2="4170.03" y2="3799.83" gradientUnits="userSpaceOnUse">
<stop offset="0.01" stop-color="#42AD49"/>
<stop offset="0.27" stop-color="#65B345"/>
<stop offset="0.59" stop-color="#B4D448"/>
<stop offset="1" stop-color="#9ECC3B"/>
</linearGradient>
<linearGradient id="paint22_linear_16_399" x1="-2497.07" y1="-2144.74" x2="3912.36" y2="3116.25" gradientUnits="userSpaceOnUse">
<stop offset="0.01" stop-color="#42AD49"/>
<stop offset="0.27" stop-color="#65B345"/>
<stop offset="0.59" stop-color="#B4D448"/>
<stop offset="1" stop-color="#9ECC3B"/>
</linearGradient>
<linearGradient id="paint23_linear_16_399" x1="-2769.79" y1="-2839.41" x2="3639.64" y2="2421.59" gradientUnits="userSpaceOnUse">
<stop offset="0.01" stop-color="#42AD49"/>
<stop offset="0.27" stop-color="#65B345"/>
<stop offset="0.59" stop-color="#B4D448"/>
<stop offset="1" stop-color="#9ECC3B"/>
</linearGradient>
<linearGradient id="paint24_linear_16_399" x1="-638.56" y1="-2623.58" x2="3323.72" y2="5267.6" gradientUnits="userSpaceOnUse">
<stop offset="0.16" stop-color="#42AD49"/>
<stop offset="0.4" stop-color="#65B345"/>
<stop offset="0.59" stop-color="#B4D448"/>
<stop offset="1" stop-color="#9ECC3B"/>
</linearGradient>
<linearGradient id="paint25_linear_16_399" x1="-661.73" y1="-2646.55" x2="3301.98" y2="5243.55" gradientUnits="userSpaceOnUse">
<stop offset="0.01" stop-color="#42AD49"/>
<stop offset="0.27" stop-color="#65B345"/>
<stop offset="0.59" stop-color="#B4D448"/>
<stop offset="1" stop-color="#9ECC3B"/>
</linearGradient>
<linearGradient id="paint26_linear_16_399" x1="-753.699" y1="-2796.75" x2="3210.02" y2="5093.46" gradientUnits="userSpaceOnUse">
<stop offset="0.01" stop-color="#42AD49"/>
<stop offset="0.27" stop-color="#65B345"/>
<stop offset="0.59" stop-color="#B4D448"/>
<stop offset="1" stop-color="#9ECC3B"/>
</linearGradient>
<linearGradient id="paint27_linear_16_399" x1="-932.294" y1="-2952.97" x2="3032.35" y2="4937.12" gradientUnits="userSpaceOnUse">
<stop offset="0.01" stop-color="#42AD49"/>
<stop offset="0.27" stop-color="#65B345"/>
<stop offset="0.59" stop-color="#B4D448"/>
<stop offset="1" stop-color="#9ECC3B"/>
</linearGradient>
<linearGradient id="paint28_linear_16_399" x1="-1123.64" y1="-3817.38" x2="3094.76" y2="4583.22" gradientUnits="userSpaceOnUse">
<stop offset="0.01" stop-color="#42AD49"/>
<stop offset="0.27" stop-color="#65B345"/>
<stop offset="0.59" stop-color="#B4D448"/>
<stop offset="1" stop-color="#9ECC3B"/>
</linearGradient>
<linearGradient id="paint29_linear_16_399" x1="-1506.25" y1="-4904.78" x2="3159.08" y2="4380.22" gradientUnits="userSpaceOnUse">
<stop offset="0.01" stop-color="#42AD49"/>
<stop offset="0.27" stop-color="#65B345"/>
<stop offset="0.59" stop-color="#B4D448"/>
<stop offset="1" stop-color="#9ECC3B"/>
</linearGradient>
<linearGradient id="paint30_linear_16_399" x1="-889.16" y1="-3173.1" x2="2983.35" y2="4776.86" gradientUnits="userSpaceOnUse">
<stop offset="0.01" stop-color="#42AD49"/>
<stop offset="0.27" stop-color="#65B345"/>
<stop offset="0.59" stop-color="#B4D448"/>
<stop offset="1" stop-color="#9ECC3B"/>
</linearGradient>
<linearGradient id="paint31_linear_16_399" x1="-973.307" y1="-3082.34" x2="2900.02" y2="4867.15" gradientUnits="userSpaceOnUse">
<stop offset="0.01" stop-color="#42AD49"/>
<stop offset="0.35" stop-color="#65B345"/>
<stop offset="0.64" stop-color="#B4D448"/>
<stop offset="1" stop-color="#9ECC3B"/>
</linearGradient>
<linearGradient id="paint32_linear_16_399" x1="-1007.66" y1="-3353.76" x2="2864.84" y2="4596.19" gradientUnits="userSpaceOnUse">
<stop offset="0.01" stop-color="#42AD49"/>
<stop offset="0.36" stop-color="#65B345"/>
<stop offset="0.65" stop-color="#B4D448"/>
<stop offset="1" stop-color="#9ECC3B"/>
</linearGradient>
<linearGradient id="paint33_linear_16_399" x1="-1161.92" y1="-3531.43" x2="2711.6" y2="4418.1" gradientUnits="userSpaceOnUse">
<stop offset="0.01" stop-color="#42AD49"/>
<stop offset="0.34" stop-color="#65B345"/>
<stop offset="0.66" stop-color="#B4D448"/>
<stop offset="1" stop-color="#9ECC3B"/>
</linearGradient>
<linearGradient id="paint34_linear_16_399" x1="-1335.6" y1="-3992.17" x2="2590.41" y2="4065.78" gradientUnits="userSpaceOnUse">
<stop offset="0.01" stop-color="#42AD49"/>
<stop offset="0.4" stop-color="#65B345"/>
<stop offset="0.69" stop-color="#B4D448"/>
<stop offset="1" stop-color="#9ECC3B"/>
</linearGradient>
<linearGradient id="paint35_linear_16_399" x1="-1815.36" y1="-5359.55" x2="2875.73" y2="4268.1" gradientUnits="userSpaceOnUse">
<stop offset="0.01" stop-color="#42AD49"/>
<stop offset="0.27" stop-color="#65B345"/>
<stop offset="0.59" stop-color="#B4D448"/>
<stop offset="1" stop-color="#9ECC3B"/>
</linearGradient>
<linearGradient id="paint36_linear_16_399" x1="-2218.57" y1="-6486.51" x2="2840.17" y2="3895.93" gradientUnits="userSpaceOnUse">
<stop offset="0.01" stop-color="#42AD49"/>
<stop offset="0.27" stop-color="#65B345"/>
<stop offset="0.59" stop-color="#B4D448"/>
<stop offset="1" stop-color="#9ECC3B"/>
</linearGradient>
<linearGradient id="paint37_linear_16_399" x1="-997.117" y1="-3181.32" x2="2876.4" y2="4768.22" gradientUnits="userSpaceOnUse">
<stop offset="0.01" stop-color="#42AD49"/>
<stop offset="0.27" stop-color="#65B345"/>
<stop offset="0.59" stop-color="#B4D448"/>
<stop offset="1" stop-color="#9ECC3B"/>
</linearGradient>
<linearGradient id="paint38_linear_16_399" x1="-1102.32" y1="-3490.8" x2="2770.95" y2="4458.82" gradientUnits="userSpaceOnUse">
<stop offset="0.01" stop-color="#42AD49"/>
<stop offset="0.27" stop-color="#65B345"/>
<stop offset="0.59" stop-color="#B4D448"/>
<stop offset="1" stop-color="#9ECC3B"/>
</linearGradient>
<linearGradient id="paint39_linear_16_399" x1="-1243.52" y1="-3847.37" x2="2629.8" y2="4102.13" gradientUnits="userSpaceOnUse">
<stop offset="0.01" stop-color="#42AD49"/>
<stop offset="0.27" stop-color="#65B345"/>
<stop offset="0.59" stop-color="#B4D448"/>
<stop offset="1" stop-color="#9ECC3B"/>
</linearGradient>
<linearGradient id="paint40_linear_16_399" x1="-2322.51" y1="-6791.75" x2="2975.56" y2="4081.91" gradientUnits="userSpaceOnUse">
<stop offset="0.01" stop-color="#42AD49"/>
<stop offset="0.27" stop-color="#65B345"/>
<stop offset="0.59" stop-color="#B4D448"/>
<stop offset="1" stop-color="#9ECC3B"/>
</linearGradient>
<linearGradient id="paint41_linear_16_399" x1="-4154.31" y1="-5905.42" x2="2255.11" y2="-644.414" gradientUnits="userSpaceOnUse">
<stop offset="0.01" stop-color="#42AD49"/>
<stop offset="0.27" stop-color="#65B345"/>
<stop offset="0.59" stop-color="#B4D448"/>
<stop offset="1" stop-color="#95C93D"/>
</linearGradient>
<linearGradient id="paint42_linear_16_399" x1="-2801.08" y1="-8003.15" x2="1162.16" y2="-112.236" gradientUnits="userSpaceOnUse">
<stop offset="0.01" stop-color="#42AD49"/>
<stop offset="0.27" stop-color="#65B345"/>
<stop offset="0.59" stop-color="#B4D448"/>
<stop offset="0.98" stop-color="#95C93D"/>
</linearGradient>
<linearGradient id="paint43_linear_16_399" x1="-7111.16" y1="-7747.09" x2="1329.25" y2="-818.986" gradientUnits="userSpaceOnUse">
<stop offset="0.01" stop-color="#42AD49"/>
<stop offset="0.27" stop-color="#65B345"/>
<stop offset="0.59" stop-color="#B4D448"/>
<stop offset="1" stop-color="#95C93D"/>
</linearGradient>
<linearGradient id="paint44_linear_16_399" x1="-7572.76" y1="-7978.4" x2="1273.59" y2="-717.311" gradientUnits="userSpaceOnUse">
<stop offset="0.01" stop-color="#42AD49"/>
<stop offset="0.27" stop-color="#65B345"/>
<stop offset="0.59" stop-color="#B4D448"/>
<stop offset="1" stop-color="#95C93D"/>
</linearGradient>
<linearGradient id="paint45_linear_16_399" x1="-3018.56" y1="-8640.77" x2="1232.13" y2="-177.558" gradientUnits="userSpaceOnUse">
<stop offset="0.01" stop-color="#42AD49"/>
<stop offset="0.27" stop-color="#65B345"/>
<stop offset="0.31" stop-color="#60B246"/>
<stop offset="0.42" stop-color="#6AB645"/>
<stop offset="0.72" stop-color="#B4D448"/>
<stop offset="1" stop-color="#9ECC3B"/>
</linearGradient>
<linearGradient id="paint46_linear_16_399" x1="-6093.96" y1="-5581.13" x2="545.659" y2="-131.419" gradientUnits="userSpaceOnUse">
<stop offset="0.01" stop-color="#42AD49"/>
<stop offset="0.27" stop-color="#65B345"/>
<stop offset="0.59" stop-color="#B4D448"/>
<stop offset="1" stop-color="#9ECC3B"/>
</linearGradient>
<linearGradient id="paint47_linear_16_399" x1="-5831.03" y1="-5530.18" x2="578.402" y2="-269.171" gradientUnits="userSpaceOnUse">
<stop offset="0.01" stop-color="#42AD49"/>
<stop offset="0.27" stop-color="#65B345"/>
<stop offset="0.59" stop-color="#B4D448"/>
<stop offset="1" stop-color="#9ECC3B"/>
</linearGradient>
<linearGradient id="paint48_linear_16_399" x1="3280.31" y1="-2237.21" x2="-5049.21" y2="2533.14" gradientUnits="userSpaceOnUse">
<stop offset="0.01" stop-color="#42AD49"/>
<stop offset="0.27" stop-color="#65B345"/>
<stop offset="0.31" stop-color="#B4D448"/>
<stop offset="0.39" stop-color="#95C93D"/>
</linearGradient>
<linearGradient id="paint49_linear_16_399" x1="2913.33" y1="-1948.5" x2="-4480.55" y2="2285.08" gradientUnits="userSpaceOnUse">
<stop offset="0.01" stop-color="#42AD49"/>
<stop offset="0.27" stop-color="#65B345"/>
<stop offset="0.35" stop-color="#B4D448"/>
<stop offset="0.45" stop-color="#95C93D"/>
</linearGradient>
<clipPath id="clip0_16_399">
<rect width="175" height="70.0852" fill="white" transform="translate(0 0.503479)"/>
</clipPath>
</defs>
</svg>
