<svg width="71" height="76" viewBox="0 0 71 76" fill="none" xmlns="http://www.w3.org/2000/svg">
<g id="on-demand-reporting-02 1" clip-path="url(#clip0_26_895)">
<path id="Vector" d="M70.25 37.7382C70.25 16.896 54.58 0 35.25 0C15.92 0 0.25 16.896 0.25 37.7382C0.25 58.5804 15.92 75.4763 35.25 75.4763C54.58 75.4763 70.25 58.5804 70.25 37.7382Z" fill="#8FC74F"/>
<path id="Vector_2" d="M48.8236 36.1225C51.7018 36.1225 54.047 33.6033 54.047 30.4688C54.047 27.3342 51.7195 24.8149 48.8236 24.8149C45.9277 24.8149 43.6003 27.3342 43.6003 30.4688C43.6003 33.6033 45.9277 36.1225 48.8236 36.1225ZM48.8236 27.7188C50.2272 27.7188 51.382 28.9495 51.382 30.488C51.382 32.0264 50.2449 33.2572 48.8236 33.2572C47.4023 33.2572 46.2652 32.0264 46.2652 30.488C46.2652 28.9495 47.4023 27.7188 48.8236 27.7188Z" fill="white"/>
<path id="Vector_3" d="M48.8236 36.5458C46.585 36.5458 44.5063 37.2766 42.783 38.5266C40.6688 36.8343 38.0749 35.8535 35.25 35.8535C32.4251 35.8535 29.8312 36.8343 27.717 38.5266C25.9937 37.2766 23.915 36.5458 21.6764 36.5458C15.6358 36.5458 10.75 41.8342 10.75 48.3726C10.75 48.7187 10.9277 49.0456 11.283 49.3341C11.9404 49.911 13.2373 50.4303 14.9074 50.7956C16.7551 51.1995 19.118 51.4494 21.6764 51.4494C22.3871 51.4494 23.0799 51.4302 23.7551 51.3917H23.7728C24.6256 51.8725 25.8338 52.2956 27.2906 52.6032C29.4759 53.084 32.2475 53.3724 35.25 53.3724C38.2525 53.3724 40.9886 53.084 43.1739 52.6032C44.6485 52.2763 45.8566 51.8725 46.7094 51.3917C47.4023 51.4302 48.0952 51.4494 48.8236 51.4494C51.3642 51.4494 53.7094 51.1995 55.5749 50.7956C57.2449 50.4303 58.5241 49.9302 59.1992 49.3533C59.5546 49.0456 59.75 48.738 59.75 48.3918C59.75 41.8342 54.8464 36.5458 48.8236 36.5458ZM15.4226 47.9688C14.4987 47.7572 13.8591 47.5457 13.4505 47.3726C13.9302 42.9111 17.4302 39.4303 21.6764 39.4303C23.1155 39.4303 24.4835 39.8342 25.6561 40.5458C23.8617 42.7188 22.6891 45.488 22.4581 48.5456C22.2094 48.5649 21.9429 48.5649 21.6764 48.5649C19.4023 48.5649 17.1815 48.3534 15.4226 47.9688ZM35.25 50.4879C33.5799 50.4879 31.9454 50.3918 30.453 50.2187C29.5114 50.1033 28.6231 49.9495 27.8236 49.7764C26.4733 49.4879 25.6028 49.1418 25.1053 48.8917C25.1231 48.7187 25.1231 48.5649 25.1586 48.3918C25.4074 46.0649 26.349 43.9687 27.7348 42.3149C28.3388 41.6227 29.0317 40.9881 29.7779 40.4688C31.3591 39.3727 33.2424 38.7381 35.25 38.7381C37.2576 38.7381 39.1409 39.3727 40.7043 40.4688C41.4683 40.9881 42.1612 41.6227 42.7652 42.3342C44.1332 43.9687 45.0571 46.0649 45.3236 48.3918C45.3414 48.5649 45.3591 48.7187 45.3769 48.8917C44.8972 49.1418 44.0089 49.4687 42.6409 49.7764C41.8414 49.9495 40.953 50.1033 40.0292 50.1994C38.5368 50.3918 36.9023 50.4879 35.25 50.4879ZM55.0419 47.9688C53.3008 48.3534 51.0799 48.5649 48.8236 48.5649C48.5571 48.5649 48.2906 48.5649 48.0241 48.5456C47.7931 45.488 46.6206 42.7188 44.8439 40.5458C46.0165 39.8342 47.3668 39.4303 48.8236 39.4303C53.052 39.4303 56.552 42.8919 57.0317 47.3726C56.6409 47.5265 56.019 47.7572 55.0419 47.9688Z" fill="white"/>
<path id="Vector_4" d="M21.6586 36.1225C24.5368 36.1225 26.882 33.6033 26.882 30.4688C26.882 27.3342 24.5546 24.8149 21.6586 24.8149C18.7627 24.8149 16.4353 27.3342 16.4353 30.4688C16.4353 33.6033 18.7627 36.1225 21.6586 36.1225ZM21.6586 27.7188C23.0622 27.7188 24.217 28.9495 24.217 30.488C24.217 32.0264 23.0799 33.2572 21.6586 33.2572C20.2373 33.2572 19.1002 32.0264 19.1002 30.488C19.1002 28.9495 20.2373 27.7188 21.6586 27.7188Z" fill="white"/>
<path id="Vector_5" d="M35.25 35.3731C38.6256 35.3731 41.3794 32.4116 41.3794 28.7385C41.3794 25.0655 38.6434 22.104 35.25 22.104C31.8566 22.104 29.1205 25.0655 29.1205 28.7385C29.1205 32.4116 31.8566 35.3731 35.25 35.3731ZM35.25 24.9886C37.151 24.9886 38.7145 26.6616 38.7145 28.7385C38.7145 30.8154 37.1688 32.4885 35.25 32.4885C33.3312 32.4885 31.7855 30.8154 31.7855 28.7385C31.7855 26.6616 33.3312 24.9886 35.25 24.9886Z" fill="white"/>
</g>
<defs>
<clipPath id="clip0_26_895">
<rect width="71" height="75.4763" fill="white"/>
</clipPath>
</defs>
</svg>
