<svg width="71" height="76" viewBox="0 0 71 76" fill="none" xmlns="http://www.w3.org/2000/svg">
<g id="self-serve-modeling-02 1" clip-path="url(#clip0_26_901)">
<path id="Vector" d="M70.25 37.7382C70.25 16.896 54.58 0 35.25 0C15.92 0 0.25 16.896 0.25 37.7382C0.25 58.5804 15.92 75.4763 35.25 75.4763C54.58 75.4763 70.25 58.5804 70.25 37.7382Z" fill="#8FC74F"/>
<path id="Vector_2" d="M41.7163 14.9495V8.08691L28.8007 16.1359L41.7163 24.1849V17.7968C50.2817 20.7537 56.4771 29.405 56.4771 39.5894C56.4771 52.2198 46.9639 62.4955 35.25 62.4955C23.5362 62.4955 14.0229 52.2198 14.0229 39.5894C14.0229 31.7048 18.2717 24.1485 23.9255 20.0601L21.9111 18.4174C15.6141 23.0169 11.4838 30.7921 11.4838 39.5894C11.4838 53.7346 22.1481 65.2333 35.25 65.2333C48.3519 65.2333 59.0163 53.7346 59.0163 39.5894C59.0163 27.8719 51.6866 17.9976 41.7163 14.9495Z" fill="white"/>
<path id="Vector_3" d="M18.9658 36.0484C18.9658 40.4835 22.3005 44.0792 26.4139 44.0792C30.5273 44.0792 33.862 40.4835 33.862 36.0484H26.2277V28.0176C22.199 28.127 18.9658 31.6862 18.9658 36.0484Z" fill="white"/>
<path id="Vector_4" d="M29.156 24.9331H28.9698V32.9639H36.6041C36.6041 28.5287 33.2694 24.9331 29.156 24.9331Z" fill="white"/>
<path id="Vector_5" d="M38.5001 43.5864H34.4883V53.4972H38.5001V43.5864Z" fill="white"/>
<path id="Vector_6" d="M46.7776 32.3804H42.7657V53.5159H46.7776V32.3804Z" fill="white"/>
</g>
<defs>
<clipPath id="clip0_26_901">
<rect width="71" height="75.4763" fill="white"/>
</clipPath>
</defs>
</svg>
